<svg width="1653" height="993" xmlns="http://www.w3.org/2000/svg" xmlns:xlink="http://www.w3.org/1999/xlink" overflow="hidden"><defs><clipPath id="clip0"><rect x="1674" y="619" width="1653" height="993"/></clipPath><clipPath id="clip1"><rect x="1675" y="619" width="1650" height="990"/></clipPath><clipPath id="clip2"><rect x="1675" y="619" width="1650" height="990"/></clipPath><clipPath id="clip3"><rect x="1785" y="670" width="1493" height="732"/></clipPath><clipPath id="clip4"><rect x="1785" y="670" width="1493" height="732"/></clipPath><clipPath id="clip5"><rect x="1675" y="619" width="1650" height="990"/></clipPath><clipPath id="clip6"><rect x="1675" y="619" width="1650" height="990"/></clipPath><clipPath id="clip7"><rect x="1675" y="619" width="1650" height="990"/></clipPath><clipPath id="clip8"><rect x="1675" y="619" width="1650" height="990"/></clipPath><clipPath id="clip9"><rect x="1675" y="619" width="1650" height="990"/></clipPath><clipPath id="clip10"><rect x="1675" y="619" width="1650" height="990"/></clipPath><clipPath id="clip11"><rect x="1675" y="619" width="1650" height="990"/></clipPath><clipPath id="clip12"><rect x="1675" y="619" width="1650" height="990"/></clipPath><clipPath id="clip13"><rect x="1675" y="619" width="1650" height="990"/></clipPath><clipPath id="clip14"><rect x="1675" y="619" width="1650" height="990"/></clipPath><clipPath id="clip15"><rect x="1675" y="619" width="1650" height="990"/></clipPath><clipPath id="clip16"><rect x="1675" y="619" width="1650" height="990"/></clipPath><clipPath id="clip17"><rect x="1675" y="619" width="1650" height="990"/></clipPath><clipPath id="clip18"><rect x="1675" y="619" width="1650" height="990"/></clipPath><clipPath id="clip19"><rect x="1675" y="619" width="1650" height="990"/></clipPath><clipPath id="clip20"><rect x="1675" y="619" width="1650" height="990"/></clipPath><clipPath id="clip21"><rect x="1675" y="619" width="1650" height="990"/></clipPath><clipPath id="clip22"><rect x="1675" y="619" width="1650" height="990"/></clipPath><clipPath id="clip23"><rect x="1675" y="619" width="1650" height="990"/></clipPath><clipPath id="clip24"><rect x="1675" y="619" width="1650" height="990"/></clipPath><clipPath id="clip25"><rect x="1675" y="619" width="1650" height="990"/></clipPath></defs><g clip-path="url(#clip0)" transform="translate(-1674 -619)"><rect x="1675" y="620" width="1650" height="990" fill="#FFFFFF"/><g clip-path="url(#clip1)"><path d="M1785.5 1294.54 3274.5 1294.54M1785.5 1190.54 3274.5 1190.54M1785.5 1086.54 3274.5 1086.54M1785.5 982.532 3274.5 982.532M1785.5 878.529 3274.5 878.529M1785.5 774.526 3274.5 774.526M1785.5 670.5 3274.5 670.5" stroke="#D9D9D9" stroke-width="3.4375" stroke-linejoin="round" stroke-miterlimit="10" fill="none"/></g><g clip-path="url(#clip2)"><path d="M1785.5 1398.5 3274.5 1398.5" stroke="#D9D9D9" stroke-width="3.4375" stroke-linejoin="round" stroke-miterlimit="10" fill="none" fill-rule="evenodd"/></g><g clip-path="url(#clip3)"><path d="M1891 1003 2104.07 962.032 2317.08 920 2530.08 962.032 2743.09 920 2955.1 941.031 3168 941.031" stroke="#4472C4" stroke-width="10.3125" stroke-linecap="round" stroke-linejoin="round" stroke-miterlimit="10" fill="none"/></g><g clip-path="url(#clip4)"><path d="M1891 795.026 2104.07 837 2317.08 837 2530.08 837 2743.09 754.025 2955.1 733 3168 733" stroke="#ED7D31" stroke-width="10.3125" stroke-linecap="round" stroke-linejoin="round" stroke-miterlimit="10" fill="none"/></g><g clip-path="url(#clip5)"><text fill="#595959" font-family="Calibri,Calibri_MSFontService,sans-serif" font-weight="400" font-size="41" transform="matrix(1 0 0 1 1725.9 1410)">0</text></g><g clip-path="url(#clip6)"><text fill="#595959" font-family="Calibri,Calibri_MSFontService,sans-serif" font-weight="400" font-size="41" transform="matrix(1 0 0 1 1725.9 1306)">5</text></g><g clip-path="url(#clip7)"><text fill="#595959" font-family="Calibri,Calibri_MSFontService,sans-serif" font-weight="400" font-size="41" transform="matrix(1 0 0 1 1705 1202)">10</text></g><g clip-path="url(#clip8)"><text fill="#595959" font-family="Calibri,Calibri_MSFontService,sans-serif" font-weight="400" font-size="41" transform="matrix(1 0 0 1 1705 1098)">15</text></g><g clip-path="url(#clip9)"><text fill="#595959" font-family="Calibri,Calibri_MSFontService,sans-serif" font-weight="400" font-size="41" transform="matrix(1 0 0 1 1705 994)">20</text></g><g clip-path="url(#clip10)"><text fill="#595959" font-family="Calibri,Calibri_MSFontService,sans-serif" font-weight="400" font-size="41" transform="matrix(1 0 0 1 1705 890)">25</text></g><g clip-path="url(#clip11)"><text fill="#595959" font-family="Calibri,Calibri_MSFontService,sans-serif" font-weight="400" font-size="41" transform="matrix(1 0 0 1 1705 786)">30</text></g><g clip-path="url(#clip12)"><text fill="#595959" font-family="Calibri,Calibri_MSFontService,sans-serif" font-weight="400" font-size="41" transform="matrix(1 0 0 1 1705 682)">35</text></g><g clip-path="url(#clip13)"><text fill="#595959" font-family="Calibri,Calibri_MSFontService,sans-serif" font-weight="400" font-size="41" transform="matrix(1 0 0 1 1870.58 1464)">24</text></g><g clip-path="url(#clip14)"><text fill="#595959" font-family="Calibri,Calibri_MSFontService,sans-serif" font-weight="400" font-size="41" transform="matrix(1 0 0 1 2083.39 1464)">25</text></g><g clip-path="url(#clip15)"><text fill="#595959" font-family="Calibri,Calibri_MSFontService,sans-serif" font-weight="400" font-size="41" transform="matrix(1 0 0 1 2296.21 1464)">26</text></g><g clip-path="url(#clip16)"><text fill="#595959" font-family="Calibri,Calibri_MSFontService,sans-serif" font-weight="400" font-size="41" transform="matrix(1 0 0 1 2509.03 1464)">27</text></g><g clip-path="url(#clip17)"><text fill="#595959" font-family="Calibri,Calibri_MSFontService,sans-serif" font-weight="400" font-size="41" transform="matrix(1 0 0 1 2721.85 1464)">28</text></g><g clip-path="url(#clip18)"><text fill="#595959" font-family="Calibri,Calibri_MSFontService,sans-serif" font-weight="400" font-size="41" transform="matrix(1 0 0 1 2934.66 1464)">29</text></g><g clip-path="url(#clip19)"><text fill="#595959" font-family="Calibri,Calibri_MSFontService,sans-serif" font-weight="400" font-size="41" transform="matrix(1 0 0 1 3147.48 1464)">30</text></g><g clip-path="url(#clip20)"><path d="M2287 1544 2375 1544" stroke="#4472C4" stroke-width="10.3125" stroke-linecap="round" stroke-linejoin="round" stroke-miterlimit="10" fill="none" fill-rule="evenodd"/></g><g clip-path="url(#clip21)"><text fill="#595959" font-family="Yu Gothic,Yu Gothic_MSFontService,sans-serif" font-weight="400" font-size="41" transform="matrix(1 0 0 1 2384.3 1556)">系列</text></g><g clip-path="url(#clip22)"><text fill="#595959" font-family="Calibri,Calibri_MSFontService,sans-serif" font-weight="400" font-size="41" transform="matrix(1 0 0 1 2466.8 1556)">1</text></g><g clip-path="url(#clip23)"><path d="M2529 1544 2617 1544" stroke="#ED7D31" stroke-width="10.3125" stroke-linecap="round" stroke-linejoin="round" stroke-miterlimit="10" fill="none" fill-rule="evenodd"/></g><g clip-path="url(#clip24)"><text fill="#595959" font-family="Yu Gothic,Yu Gothic_MSFontService,sans-serif" font-weight="400" font-size="41" transform="matrix(1 0 0 1 2626.15 1556)">系列</text></g><g clip-path="url(#clip25)"><text fill="#595959" font-family="Calibri,Calibri_MSFontService,sans-serif" font-weight="400" font-size="41" transform="matrix(1 0 0 1 2708.65 1556)">2</text></g><rect x="1675.5" y="620.5" width="1650" height="990" stroke="#D9D9D9" stroke-width="3.4375" stroke-linejoin="round" stroke-miterlimit="10" fill="none"/></g></svg>